<?xml version="1.0" standalone="no"?>
<!DOCTYPE svg PUBLIC "-//W3C//DTD SVG 20010904//EN"
 "http://www.w3.org/TR/2001/REC-SVG-20010904/DTD/svg10.dtd">
<svg version="1.0" xmlns="http://www.w3.org/2000/svg"
 width="256.000000pt" height="256.000000pt" viewBox="0 0 256.000000 256.000000"
 preserveAspectRatio="xMidYMid meet">
<metadata>
Created by potrace 1.11, written by Peter Selinger 2001-2013
</metadata>
<g transform="translate(0.000000,256.000000) scale(0.100000,-0.100000)"
fill="#000000" stroke="none">
<path d="M636 2370 c-28 -33 -626 -1075 -626 -1091 0 -6 18 -41 39 -77 21 -37
51 -89 67 -117 15 -27 123 -216 241 -419 117 -202 213 -372 213 -377 0 -5 4
-9 8 -9 4 0 13 -12 19 -28 14 -30 34 -64 45 -72 8 -7 1275 -6 1281 0 2 3 19
32 38 65 19 33 39 68 44 77 17 30 219 379 235 407 50 87 127 219 137 236 7 11
16 27 20 35 4 8 32 58 63 110 30 52 64 112 75 132 22 44 33 18 -113 272 -57
99 -114 198 -126 221 -33 57 -246 426 -262 452 -8 13 -13 25 -12 27 2 2 -4 12
-13 22 -9 11 -31 46 -49 79 -18 33 -35 62 -37 65 -3 3 -290 5 -639 5 -554 0
-637 -2 -648 -15z m1144 -305 c12 -22 51 -92 88 -155 37 -63 134 -231 215
-372 l148 -257 -32 -58 c-17 -32 -50 -89 -73 -128 -22 -38 -50 -86 -61 -106
-11 -20 -85 -149 -164 -285 l-144 -249 -475 0 -474 1 -18 24 c-10 14 -30 48
-44 75 -15 28 -36 64 -46 80 -10 17 -27 46 -38 65 -28 50 -45 80 -182 315 -67
116 -129 223 -137 238 -14 27 -11 33 107 238 67 116 129 225 139 242 165 289
214 366 234 369 12 2 228 3 479 3 l457 0 21 -40z"/>
</g>
</svg>
